<?xml version="1.0" encoding="UTF-8" standalone="no"?>
<svg width="63px" height="45px" viewBox="0 0 63 45" version="1.1" xmlns="http://www.w3.org/2000/svg" xmlns:xlink="http://www.w3.org/1999/xlink">
    <!-- Generator: Sketch 44 (41411) - http://www.bohemiancoding.com/sketch -->
    <title>Chat</title>
    <desc>Created with Sketch.</desc>
    <defs></defs>
    <g id="Test" stroke="none" stroke-width="1" fill="none" fill-rule="evenodd">
        <g id="Icons" transform="translate(-1232.000000, -137.000000)" fill="#004666">
            <g id="Group-3" transform="translate(1048.000000, 133.000000)">
                <g id="Chat" transform="translate(184.000000, 4.000000)">
                    <path d="M19.0391671,20.7700005 L18.2724079,20.7700005 L12.1158336,27.1723531 L12.1158336,20.7700005 L1.73083337,20.7700005 L1.73083337,2.32104755 C1.73083337,2.00084338 2.03372921,1.73083337 2.39028089,1.73083337 L37.4535033,1.73083337 C37.810055,1.73083337 38.0783342,2.00084338 38.0783342,2.32104755 L38.0783342,10.3850002 L39.8091675,10.3850002 L39.8091675,2.32104755 C39.8091675,1.04196169 38.7706675,0 37.4535033,0 L2.39028089,0 C1.07311669,0 0,1.04196169 0,2.32104755 L0,22.5008338 L10.3850002,22.5008338 L10.3850002,31.141154 L18.9526254,22.5008338 L19.0391671,22.5008338 L19.0391671,20.7700005 Z" id="Fill-1"></path>
                    <path d="M24.2316672,34.8742154 L44.053171,34.8742154 L50.6788011,41.0290589 L50.6788011,34.8742154 L60.579168,34.8742154 L60.579168,16.17083 C60.579168,15.8523567 60.278003,15.5823467 59.9214513,15.5823467 L24.8893839,15.5823467 C24.5328322,15.5823467 24.2316672,15.8523567 24.2316672,16.17083 L24.2316672,34.8742154 Z M52.4096345,45.0013215 L43.3746843,36.6102413 L22.5008338,36.6102413 L22.5008338,16.17083 C22.5008338,14.8900133 23.5722197,13.8463208 24.8893839,13.8463208 L59.9214513,13.8463208 C61.2386155,13.8463208 62.3100014,14.8900133 62.3100014,16.17083 L62.3100014,36.6102413 L52.4096345,36.6102413 L52.4096345,45.0013215 Z" id="Fill-3"></path>
                </g>
            </g>
        </g>
    </g>
</svg>