<?xml version="1.0" encoding="UTF-8" standalone="no"?>
<svg width="229px" height="22px" viewBox="0 0 229 22" version="1.1" xmlns="http://www.w3.org/2000/svg" xmlns:xlink="http://www.w3.org/1999/xlink">
    <!-- Generator: Sketch 44 (41411) - http://www.bohemiancoding.com/sketch -->
    <title>Logo</title>
    <desc>Created with Sketch.</desc>
    <defs></defs>
    <g id="Test" stroke="none" stroke-width="1" fill="none" fill-rule="evenodd">
        <g id="Registrierung" transform="translate(-39.000000, -21.000000)" fill="#FFFFFF">
            <g id="Logo" transform="translate(40.000000, 17.000000)">
                <text id="FleetCommunity" font-family="OpenSans, Open Sans" font-size="20" font-weight="normal" letter-spacing="0.192156881">
                    <tspan x="72" y="21">FleetCommunity</tspan>
                </text>
                <g id="FleetCommunity" transform="translate(0.000000, 5.000000)">
                    <g id="Group" transform="translate(-0.872727, -0.584615)">
                        <path d="M5.20610419,15.6507714 C5.18465204,15.4628932 5.17362786,15.2718288 5.17362786,15.0781771 C5.17362786,12.3337467 7.38778328,10.1089463 10.1190824,10.1089463 C12.8503815,10.1089463 15.064537,12.3337467 15.064537,15.0781771 C15.064537,15.2582534 15.0550042,15.4360926 15.0364182,15.6112128 L17.1079148,15.6112128 L17.1079148,16.7804436 L14.7667468,16.7804436 C14.0751233,18.686489 12.2552722,20.0474078 10.1190824,20.0474078 C7.99770037,20.0474078 6.18828665,18.7052911 5.48596312,16.8200022 L1.55494554,16.8200022 C0.504947013,16.8200022 0.206618548,15.359434 0.305554981,13.2855897 C0.393835313,11.435112 0.821669252,9.77133034 1.53498176,9.10499642 C2.0537901,8.62035667 3.39591086,8.19826201 5.86443713,7.62737766 C6.55650302,7.46732686 7.28169363,7.30828126 8.35035776,7.07972583 C12.8053345,6.12693898 13.9534606,5.85175912 14.5836408,5.51113098 C15.0388705,5.26506794 17.8561717,3.47863464 18.5381908,3.06890252 C19.3468268,2.5831037 20.0874991,2.16502996 20.7938323,1.80188163 C22.2415582,1.05755972 23.4949179,0.570306101 24.5709809,0.376821178 C26.8260308,-0.028655232 33.317634,-0.13130705 37.9675277,0.191578953 L37.8873034,1.35802767 C33.3245122,1.04119002 26.9187053,1.14248514 24.7759551,1.52776914 C23.8340161,1.69713746 22.6781813,2.14647751 21.3238766,2.84276863 C20.6426645,3.19300144 19.9235525,3.59890537 19.1353258,4.07244309 C18.4839825,4.46374626 15.6323572,6.2719443 15.1349052,6.54082951 C14.3485974,6.96584853 13.3234873,7.21154425 8.59260753,8.22333853 C7.52972977,8.45065642 6.80978628,8.60855126 6.12543448,8.76681805 C3.94753786,9.27048987 2.61982895,9.68805202 2.32728232,9.9613316 C1.91023426,10.350913 1.54226401,11.7818938 1.4678567,13.3415738 C1.43273533,14.0777662 1.46783488,14.756067 1.56496889,15.2316195 C1.60284349,15.4170474 1.64818646,15.5603791 1.69263148,15.6507714 C1.80512146,15.6507714 1.90788298,15.6507714 2.29858444,15.6507714 L5.20610419,15.6507714 Z M10.1190824,18.8781771 C12.2077229,18.8781771 13.9009006,17.1768591 13.9009006,15.0781771 C13.9009006,12.979495 12.2077229,11.2781771 10.1190824,11.2781771 C8.0304419,11.2781771 6.33726422,12.979495 6.33726422,15.0781771 C6.33726422,17.1768591 8.0304419,18.8781771 10.1190824,18.8781771 Z" id="Path-2" fill-rule="nonzero"></path>
                        <path d="M22.9515587,15.6507714 C22.9301066,15.4628932 22.9190824,15.2718288 22.9190824,15.0781771 C22.9190824,12.3337467 25.1332378,10.1089463 27.864537,10.1089463 C30.5958361,10.1089463 32.8099915,12.3337467 32.8099915,15.0781771 C32.8099915,15.2582534 32.8004588,15.4360926 32.7818727,15.6112128 L39.8289873,15.6112128 L39.8289873,16.7804436 L32.5122014,16.7804436 C31.8205779,18.686489 30.0007268,20.0474078 27.864537,20.0474078 C25.7431549,20.0474078 23.9337412,18.7052911 23.2314177,16.8200022 L19.3004001,16.8200022 C18.2504016,16.8200022 17.9520731,15.359434 18.0510095,13.2855897 C18.1392899,11.435112 18.5671238,9.77133034 19.2804363,9.10499642 C19.7992446,8.62035667 21.1413654,8.19826201 23.6098917,7.62737766 C24.3019576,7.46732686 25.0271482,7.30828126 26.0958123,7.07972583 C30.5507891,6.12693898 31.6989152,5.85175912 32.3290954,5.51113098 C32.7843251,5.26506794 35.6016262,3.47863464 36.2836454,3.06890252 C37.0922813,2.5831037 37.8329537,2.16502996 38.5392869,1.80188163 C39.9870127,1.05755972 41.2403724,0.570306101 42.3164354,0.376821178 C44.0068803,0.0728653714 48.2531124,-0.0715515008 52.3100066,0.0346224719 C57.0872148,0.159647961 60.5043794,0.568634042 61.5490208,1.31784681 C62.0730637,1.69368839 62.600415,2.14127144 63.1260604,2.64570906 C63.6910737,3.18792629 64.2250486,3.76707899 64.7126543,4.34621019 C64.8834074,4.54901428 65.0363825,4.73759797 65.1695674,4.90730459 C65.2504234,5.01033294 65.307357,5.08505589 65.3383295,5.12680237 L64.4054033,5.82563025 C64.3805526,5.79213511 64.3299948,5.72578004 64.2558467,5.63129916 C64.1306913,5.47182372 63.9861236,5.29360455 63.8242867,5.10139017 C63.3616352,4.55189717 62.8550261,4.00242567 62.3223702,3.49126032 C61.8343203,3.02290132 61.3483834,2.61046832 60.8729978,2.26952354 C59.3130235,1.15071599 46.4854494,0.815002398 42.5214096,1.52776914 C41.5794707,1.69713746 40.4236359,2.14647751 39.0693311,2.84276863 C38.388119,3.19300144 37.669007,3.59890537 36.8807803,4.07244309 C36.229437,4.46374626 33.3778117,6.2719443 32.8803598,6.54082951 C32.0940519,6.96584853 31.0689418,7.21154425 26.3380621,8.22333853 C25.2751843,8.45065642 24.5552408,8.60855126 23.870889,8.76681805 C21.6929924,9.27048987 20.3652835,9.68805202 20.0727369,9.9613316 C19.6556888,10.350913 19.2877186,11.7818938 19.2133112,13.3415738 C19.1781899,14.0777662 19.2132894,14.756067 19.3104234,15.2316195 C19.348298,15.4170474 19.393641,15.5603791 19.438086,15.6507714 C19.550576,15.6507714 19.6533375,15.6507714 20.044039,15.6507714 L22.9515587,15.6507714 Z M27.864537,18.8781771 C29.9531775,18.8781771 31.6463551,17.1768591 31.6463551,15.0781771 C31.6463551,12.979495 29.9531775,11.2781771 27.864537,11.2781771 C25.7758964,11.2781771 24.0827188,12.979495 24.0827188,15.0781771 C24.0827188,17.1768591 25.7758964,18.8781771 27.864537,18.8781771 Z" id="Path-2-Copy" fill-rule="nonzero"></path>
                    </g>
                </g>
            </g>
        </g>
    </g>
</svg>