<?xml version="1.0" encoding="UTF-8" standalone="no"?>
<svg width="30px" height="49px" viewBox="0 0 30 49" version="1.1" xmlns="http://www.w3.org/2000/svg" xmlns:xlink="http://www.w3.org/1999/xlink">
    <!-- Generator: Sketch 44 (41411) - http://www.bohemiancoding.com/sketch -->
    <title>Idea</title>
    <desc>Created with Sketch.</desc>
    <defs></defs>
    <g id="Test" stroke="none" stroke-width="1" fill="none" fill-rule="evenodd">
        <g id="Icons" transform="translate(-1142.000000, -135.000000)" fill-rule="nonzero" fill="#004D6A">
            <g id="Group-3" transform="translate(1048.000000, 133.000000)">
                <g id="Idea" transform="translate(94.000000, 2.000000)">
                    <polygon id="Line" points="8.5 45 21.5 45 21.5 43 8.5 43"></polygon>
                    <polygon id="Line-Copy" points="11 49 19 49 19 47 11 47"></polygon>
                    <path d="M21.7515173,40.1822507 L21.7515173,41.1822507 L20.7515173,41.1822507 L15.2186127,41.1822507 L8.6857082,41.1822507 L8.6857082,40.1822507 C8.6857082,34.3392568 7.40301711,30.658732 4.49974021,26.1066889 C4.35113682,25.8736939 3.05685657,23.8899621 2.69599991,23.3092537 C0.840085367,20.3226239 0,18.0080917 0,15 C3.33066907e-16,6.71572875 6.71572875,0 15,0 C23.1785738,0 30,6.92957622 30,15 C30,16.9425663 29.5023931,18.7277652 28.5052442,20.7597394 C28.1547359,21.4739996 27.7586282,22.1939548 27.1902551,23.1700772 C27.3175252,22.9515039 26.0808044,25.0569785 25.7452808,25.6476826 C23.0240407,30.4385467 21.7515173,34.4437705 21.7515173,40.1822507 Z M24.0062365,24.6598948 C24.2259892,24.2730103 24.4483327,23.890011 24.7492192,23.3777621 C24.8291259,23.2417237 24.9314809,23.0678076 25.110746,22.7631971 C25.2524587,22.522226 25.3592783,22.3399455 25.4619028,22.1636984 C26.0084572,21.2250473 26.3842483,20.5420192 26.7097812,19.8786534 C27.5824886,18.1002641 28,16.6024133 28,15 C28,8.027165 22.066901,2 15,2 C7.82029825,2 2,7.82029825 2,15 C2,17.5767088 2.7184217,19.5560435 4.39473352,22.2536476 C4.74156594,22.8117876 6.02665026,24.7814248 6.18596799,25.0312188 C9.1113349,29.6178968 10.5281996,33.4769674 10.6732557,39.1822507 C10.8379771,39.1822507 11.0207242,39.1822507 11.4147409,39.1822507 L15.2186127,39.1822507 C18.1675311,39.1822507 19.0208366,39.1822507 19.7641582,39.1822507 C19.9082408,33.5770029 21.2861386,29.4487478 24.0062365,24.6598948 Z" id="Oval"></path>
                </g>
            </g>
        </g>
    </g>
</svg>