<?xml version="1.0" encoding="UTF-8" standalone="no"?>
<svg width="34px" height="51px" viewBox="0 0 34 51" version="1.1" xmlns="http://www.w3.org/2000/svg" xmlns:xlink="http://www.w3.org/1999/xlink">
    <!-- Generator: Sketch 44 (41411) - http://www.bohemiancoding.com/sketch -->
    <title>Question Mark</title>
    <desc>Created with Sketch.</desc>
    <defs></defs>
    <g id="Test" stroke="none" stroke-width="1" fill="none" fill-rule="evenodd">
        <g id="Icons" transform="translate(-1048.000000, -133.000000)" fill-rule="nonzero" fill="#004D6A">
            <g id="Group-3" transform="translate(1048.000000, 133.000000)">
                <g id="Question-Mark">
                    <path d="M15.5,46.5 L15.5,49.5 L18.5,49.5 L18.5,46.5 L15.5,46.5 Z M14,45 L20,45 L20,51 L14,51 L14,45 Z" id="Rectangle-3"></path>
                    <path d="M20,42.1822507 L14,42.1822507 C14,35.2786583 16.2781827,31.8428261 22.0846601,27.0262882 C22.2005331,26.9301909 22.2005331,26.9301909 22.3155153,26.8348428 C26.743442,23.1624257 28,21.3017036 28,17 C28,10.6691445 23.233988,6 17,6 C10.9248678,6 6,10.9248678 6,17 L0,17 C4.4408921e-16,7.61115925 7.61115925,0 17,0 C26.5204336,0 34,7.3275468 34,17 C34,23.515713 31.8150196,26.7512511 26.1458259,31.4531456 C26.0301746,31.5490486 26.0301746,31.5490486 25.9153399,31.6442848 C21.3474808,35.433375 20,37.4655727 20,42.1822507 Z M18.6285057,40.5200526 C18.6285057,40.2163776 18.6602719,39.8129252 18.7099867,39.5180684 C19.3318307,35.829933 20.8290017,33.9145621 24.9576699,30.4897856 C25.0727642,30.3943342 25.0727642,30.3943342 25.1882482,30.2985699 C30.5471252,25.8540447 32.5,22.9622107 32.5,17 C32.5,8.16294621 25.6988222,1.5 17,1.5 C9.24327695,1.5 1.47441126,8.55466427 1.47441126,15.393056 L4.47441126,15.393056 C4.47441126,10.2956475 10.8263639,4.5 17,4.5 C24.0555994,4.5 29.5,9.83374504 29.5,17 C29.5,21.8552059 28.0113364,24.059632 23.2730929,27.9894185 C23.1579435,28.0849053 23.1579435,28.0849053 23.0423301,28.1807873 C18.405274,32.0272771 16.5250759,34.432665 15.7517408,39.0192887 C15.6733677,39.484117 15.6285057,40.0538947 15.6285057,40.5200526 L18.6285057,40.5200526 Z" id="Oval"></path>
                </g>
            </g>
        </g>
    </g>
</svg>